<svg id="eQolHkbeB3C1" xmlns="http://www.w3.org/2000/svg" xmlns:xlink="http://www.w3.org/1999/xlink" viewBox="0 0 1000 1000" shape-rendering="geometricPrecision" text-rendering="geometricPrecision"><rect width="1000" height="1000" rx="0" ry="0" transform="matrix(-1 0 0 1 1000 0)" fill="none"/><g transform="matrix(-1 0 0 1 1000.5 0)"><path d="M474.59,648.35l-95.88-67.16c-4.45-3.14-10.72-2.15-14.02,2.47-1.16,1.65-1.82,3.8-1.82,5.78v132.67c0,5.61,4.46,10.07,10.07,10.07c1.98,0,3.96-.66,5.61-1.82l95.87-65.51c4.62-3.13,5.78-9.4,2.64-13.86-.66-.99-1.48-1.98-2.47-2.64Z" fill="#3f5c7d" stroke="#000" stroke-width="4"/><path d="M477.06,650.99c3.14,4.46,1.98,10.73-2.64,13.86l-15.18,10.4-96.37,18.15v-103.96c0-1.98.66-4.13,1.82-5.78c3.3-4.62,9.57-5.61,14.02-2.47l95.88,67.16c.99.66,1.81,1.65,2.47,2.64Z" opacity="0" fill="rgba(63,92,125,0)" stroke="rgba(255,255,255,0)" stroke-width="4"/><path d="M651.82,664.85h-303.31c-54.45,0-98.51-44.06-98.51-98.51v-200.5c0-54.45,44.06-98.51,98.51-98.51h303.47c54.46,0,98.52,44.06,98.52,98.51v200.5c-.17,54.45-44.23,98.51-98.68,98.51Z" fill="#3f5c7d" stroke="#000" stroke-width="4"/><path d="M597.03,497.03c17.04,0,30.86-13.82,30.86-30.86s-13.82-30.86-30.86-30.86-30.86,13.82-30.86,30.86s13.82,30.86,30.86,30.86Z" fill="#fff" stroke="#000" stroke-width="4"/><path d="M500.17,497.03c17.04,0,30.85-13.82,30.85-30.86s-13.81-30.86-30.85-30.86c-17.05,0-30.86,13.82-30.86,30.86s13.81,30.86,30.86,30.86Z" fill="#fff" stroke="#000" stroke-width="4"/><path d="M403.46,497.03c17.05,0,30.86-13.82,30.86-30.86s-13.81-30.86-30.86-30.86c-17.04,0-30.85,13.82-30.85,30.86s13.81,30.86,30.85,30.86Z" fill="#fff" stroke="#000" stroke-width="4"/></g></svg>
