<svg xmlns="http://www.w3.org/2000/svg" height="1000" width="1000" version="1.1" xmlns:xlink="http://www.w3.org/1999/xlink" xmlns:svgjs="http://svgjs.com/svgjs"><rect fill="none" width="1000" height="1000"></rect><g><path d="M474.59 648.35L378.71 581.19C374.26 578.05 367.99 579.04 364.69 583.66 363.53 585.31 362.87 587.46 362.87 589.44V722.11C362.87 727.72 367.33 732.18 372.94 732.18 374.92 732.18 376.9 731.52 378.55 730.36L474.42 664.85C479.04 661.72 480.2 655.45 477.06 650.99 476.4 650 475.58 649.01 474.59 648.35Z" fill="#3f5c7d" opacity="1" stroke-width="4" stroke="#000000"></path><path d="M477.06 650.99C480.2 655.45 479.04 661.72 474.42 664.85L459.24 675.25 362.87 693.4V589.44C362.87 587.46 363.53 585.31 364.69 583.66 367.99 579.04 374.26 578.05 378.71 581.19L474.59 648.35C475.58 649.01 476.4 650 477.06 650.99Z" fill="#3f5c7d00" opacity="0" stroke-width="4" stroke="#ffffff00"></path><path d="M651.82 664.85H348.51C294.06 664.85 250 620.79 250 566.34V365.84C250 311.39 294.06 267.33 348.51 267.33H651.98C706.44 267.33 750.5 311.39 750.5 365.84V566.34C750.33 620.79 706.27 664.85 651.82 664.85Z" fill="#3f5c7d" opacity="1" stroke-width="4" stroke="#000000"></path><path d="M597.03 497.03C614.07 497.03 627.89 483.21 627.89 466.17 627.89 449.13 614.07 435.31 597.03 435.31 579.99 435.31 566.17 449.13 566.17 466.17 566.17 483.21 579.99 497.03 597.03 497.03Z" fill="#ffffff" opacity="1" stroke-width="4" stroke="#000000"></path><path d="M500.17 497.03C517.21 497.03 531.02 483.21 531.02 466.17 531.02 449.13 517.21 435.31 500.17 435.31 483.12 435.31 469.31 449.13 469.31 466.17 469.31 483.21 483.12 497.03 500.17 497.03Z" fill="#ffffff" opacity="1" stroke-width="4" stroke="#000000"></path><path d="M403.46 497.03C420.51 497.03 434.32 483.21 434.32 466.17 434.32 449.13 420.51 435.31 403.46 435.31 386.42 435.31 372.61 449.13 372.61 466.17 372.61 483.21 386.42 497.03 403.46 497.03Z" fill="#ffffff" opacity="1" stroke-width="4" stroke="#000000"></path></g></svg>